<?xml version="1.0" encoding="utf-8"?>
<!-- Generator: Adobe Illustrator 28.1.0, SVG Export Plug-In . SVG Version: 6.00 Build 0)  -->
<svg version="1.1" id="Layer_1" xmlns="http://www.w3.org/2000/svg" xmlns:xlink="http://www.w3.org/1999/xlink" x="0px" y="0px"
	 viewBox="0 0 1548 170" style="enable-background:new 0 0 1548 170;" xml:space="preserve">
<style type="text/css">
	.st0{fill:#FFFFFF;}
</style>
<g>
	<polygon class="st0" points="641.97,0 641.97,170 752.47,170 752.47,140.25 674.27,140.25 674.27,97.75 745.67,97.75 745.67,68.85 
		674.27,68.85 674.27,29.75 752.47,29.75 752.47,0 	"/>
	<g>
		<path class="st0" d="M507.7,27.45h-23.8v57.29h23.8c18.62,0,32.3-9.01,32.3-28.65C540,35.7,526.32,27.45,507.7,27.45 M509.4,112.2
			h-25.5V170h-32.3V0h57.8C545.65,0,574,16.42,574,56.1C574,95.2,545.44,112.2,509.4,112.2"/>
	</g>
	<polygon class="st0" points="1032.98,0 1032.98,29.75 1072.93,29.75 1072.93,140.25 1032.98,140.25 1032.98,170 1145.18,170 
		1145.18,140.25 1105.23,140.25 1105.23,29.75 1145.18,29.75 1145.18,0 	"/>
	<g>
		<path class="st0" d="M924.62,52.7c0,20.48-11.9,26.94-32.3,26.94h-27.2V27.46h27.2C914.46,27.46,924.62,35.7,924.62,52.7
			 M958.62,52.7c0-39.68-27.2-52.7-62.9-52.7h-62.9v170h32.3v-62.9h27.2c1.49,0,2.97-0.03,4.44-0.08L929.67,170h35.79l-36.51-69.72
			C946.71,92.39,958.62,77.23,958.62,52.7"/>
	</g>
	<path class="st0" d="M1286.9,30.16l23.24,74.98h-46.49L1286.9,30.16z M1265.65,0l-56.1,170h34l11.59-37.4h63.51l11.59,37.4h34
		l-56.1-170H1265.65z"/>
	<polygon class="st0" points="1437.16,0 1437.16,170 1547.94,170 1547.94,140.25 1469.46,140.25 1469.46,0 	"/>
	<polygon class="st0" points="323.53,0 282.73,99.96 241.93,0 196.03,0 196.03,170 226.63,170 226.63,42.9 265.73,132.6 
		267.43,132.6 298.03,132.6 299.73,132.6 338.83,42.9 338.83,170 369.43,170 369.43,0 	"/>
	<polygon class="st0" points="0.06,0 0.06,29.75 40.01,29.75 40.01,140.25 0.06,140.25 0.06,170 112.26,170 112.26,140.25 
		72.31,140.25 72.31,29.75 112.26,29.75 112.26,0 	"/>
</g>
</svg>
